{"title":"Planet.51.R5.LiNE.XviD-DEViSE","uid":5210860,"size":732364840,"categoryP":"video","categoryS":"movies","magnet":"?xt=urn:btih:17bb413a3b38ae4c11c395c8bdc000f4dcb344a4&amp;dn=Planet.51.R5.LiNE.XviD-DEViSE&amp;tr=udp%3A%2F%2Ftracker.openbittorrent.com%3A80&amp;tr=udp%3A%2F%2Fopen.demonii.com%3A1337&amp;tr=udp%3A%2F%2Ftracker.coppersurfer.tk%3A6969&amp;tr=udp%3A%2F%2Fexodus.desync.com%3A6969","seeders":0,"leechers":0,"uploader":"CODYBOSS1969","files":3,"time":1260585551,"description":"General\nComplete name                    : Planet.51.R5.LiNE.XviD-DEViSE [ devise-p51.avi ]\nFormat                           : AVI\nFormat/Info                      : Audio Video Interleave\nFile size                        : 698 MiB\nDuration                         : 1h 26mn\nOverall bit rate                 : 1 124 Kbps\nMovie name                       : Planet 51 (2009)\nDirector                         : ELEKTRI4KA\nWriting application              : VirtualDubMod 1.5.10.2 (build 2540/release)\nWriting library                  : VirtualDub build 30586/release\nCopyright                        : http://uniongang.ru/\n\nVideo\nID                               : 0\nFormat                           : MPEG-4 Visual\nFormat profile                   : AdvancedSimple@L5\nFormat settings, BVOP            : Yes\nFormat settings, QPel            : No\nFormat settings, GMC             : No warppoints\nFormat settings, Matrix          : Default (H.263)\nMuxing mode                      : Packed bitstream\nCodec ID                         : XVID\nCodec ID/Hint                    : XviD\nDuration                         : 1h 26mn\nBit rate                         : 989 Kbps\nWidth                            : 640 pixels\nHeight                           : 270 pixels\nDisplay aspect ratio             : 2.35\nFrame rate                       : 25.000 fps\nResolution                       : 24 bits\nColorimetry                      : 4:2:0\nScan type                        : Progressive\nBits/(Pixel*Frame)               : 0.229\nStream size                      : 614 MiB (88%)\nWriting library                  : XviD 1.1.2 (UTC 2006-11-01)\n\nAudio\nID                               : 1\nFormat                           : MPEG Audio\nFormat version                   : Version 1\nFormat profile                   : Layer 3\nCodec ID                         : 55\nCodec ID/Hint                    : MP3\nDuration                         : 1h 26mn\nBit rate mode                    : Variable\nBit rate                         : 123 Kbps\nChannel(s)                       : 2 channels\nSampling rate                    : 44.1 KHz\nResolution                       : 16 bits\nStream size                      : 76.3 MiB (11%)\nAlignment                        : Aligned on interleaves\nInterleave, duration             : 26 ms (0.65 video frame)\nInterleave, preload duration     : 529 ms\n\n\n\nSubtitles included: Romanian\n\n\nIMDB link:  &lt;a href=&quot; http://www.imdb.com/title/tt0762125/&quot; rel=&quot;nofollow&quot; target=&quot;_NEW&quot;&gt; http://www.imdb.com/title/tt0762125/&lt;/a&gt;\n\n\nDON'T FORGET TO SEED !!!\n","torrent":{"xt":"urn:btih:17bb413a3b38ae4c11c395c8bdc000f4dcb344a4","amp;dn":"Planet.51.R5.LiNE.XviD-DEViSE","amp;tr":["udp%3A%2F%2Ftracker.openbittorrent.com%3A80","udp%3A%2F%2Fopen.demonii.com%3A1337","udp%3A%2F%2Ftracker.coppersurfer.tk%3A6969","udp%3A%2F%2Fexodus.desync.com%3A6969"],"infoHash":"17bb413a3b38ae4c11c395c8bdc000f4dcb344a4","infoHashBuffer":{"type":"Buffer","data":[23,187,65,58,59,56,174,76,17,195,149,200,189,192,0,244,220,179,68,164]},"announce":[],"urlList":[]}}